<?xml version="1.0" standalone="no"?>
<!DOCTYPE svg PUBLIC "-//W3C//DTD SVG 20010904//EN"
 "http://www.w3.org/TR/2001/REC-SVG-20010904/DTD/svg10.dtd">
<svg version="1.0" xmlns="http://www.w3.org/2000/svg"
 width="512.000000pt" height="512.000000pt" viewBox="0 0 512.000000 512.000000"
 preserveAspectRatio="xMidYMid meet">
<metadata>
Created by potrace 1.14, written by Peter Selinger 2001-2017
</metadata>
<g transform="translate(0.000000,512.000000) scale(0.100000,-0.100000)"
fill="#000000" stroke="none">
<path d="M385 5100 c-95 -26 -158 -62 -231 -135 -68 -67 -108 -137 -135 -235
-17 -61 -18 -180 -16 -2195 2 -2003 3 -2133 20 -2173 70 -174 165 -269 339
-339 40 -16 171 -18 2153 -21 1340 -1 2133 1 2173 7 201 31 373 194 417 392
11 54 13 408 12 2189 l-2 2125 -24 60 c-62 156 -179 270 -333 322 -50 17 -162
18 -2178 20 -2059 2 -2127 1 -2195 -17z"/>
</g>
</svg>
